<?xml version="1.0" encoding="utf-8"?>
<!-- Generator: Adobe Illustrator 27.8.1, SVG Export Plug-In . SVG Version: 6.00 Build 0)  -->
<svg version="1.1" baseProfile="basic" id="Layer_1"
	 xmlns="http://www.w3.org/2000/svg" xmlns:xlink="http://www.w3.org/1999/xlink" x="0px" y="0px" viewBox="0 0 1500 1000"
	 xml:space="preserve">
<style type="text/css">
	.st0{fill:#010101;}
	.st1{fill:#F48222;}
	.st2{fill:#0BAB4C;}
	.st3{fill:#D1242B;}
	.st4{fill:#FBB815;}
	.st5{fill:#0287BF;}
	.st6{fill:#D1242A;}
	.st7{fill:#0186BF;}
	.st8{fill:#FBB814;}
	.st9{fill:#898989;}
	.st10{fill:#BFBFBF;}
	.st11{fill:#F5BA7B;}
	.st12{fill:#A5A5A5;}
</style>
<g>
	<g>
		<path d="M952.4,944.8c-1.9-0.7-3.4-1.8-4.6-3.2c-1.1-1.4-1.7-3.1-1.8-5.1h8.6c0.1,1.1,0.5,2,1.3,2.6c0.7,0.6,1.7,0.9,2.8,0.9
			c1.2,0,2.1-0.3,2.8-0.8c0.7-0.5,1-1.2,1-2.1c0-0.7-0.3-1.4-0.8-1.8c-0.5-0.5-1.2-0.9-2-1.2c-0.8-0.3-1.9-0.7-3.4-1.1
			c-2.1-0.6-3.9-1.2-5.2-1.8c-1.4-0.6-2.5-1.5-3.5-2.7c-1-1.2-1.5-2.7-1.5-4.6c0-2.8,1.1-5,3.3-6.6c2.2-1.6,5.1-2.4,8.7-2.4
			c3.6,0,6.6,0.8,8.8,2.4c2.2,1.6,3.4,3.8,3.6,6.6h-8.7c-0.1-1-0.5-1.7-1.2-2.3c-0.7-0.6-1.6-0.8-2.8-0.8c-1,0-1.8,0.2-2.4,0.7
			c-0.6,0.5-0.9,1.2-0.9,2c0,1,0.5,1.7,1.5,2.3c1,0.5,2.6,1.1,4.7,1.8c2.1,0.7,3.9,1.3,5.2,1.9c1.3,0.6,2.5,1.5,3.5,2.6
			c1,1.1,1.5,2.6,1.5,4.4c0,1.7-0.5,3.3-1.4,4.7c-1,1.4-2.3,2.5-4.2,3.4c-1.8,0.8-4,1.2-6.4,1.2
			C956.5,945.9,954.3,945.5,952.4,944.8z"/>
		<path d="M983,943.9c-2.6-1.3-4.6-3.2-6.2-5.5c-1.5-2.4-2.3-5-2.3-8c0-3,0.8-5.6,2.3-8c1.5-2.4,3.6-4.2,6.2-5.5
			c2.6-1.3,5.4-2,8.5-2c3.1,0,6,0.7,8.5,2c2.6,1.3,4.6,3.2,6.1,5.5c1.5,2.4,2.2,5,2.2,8c0,3-0.8,5.6-2.3,8c-1.5,2.4-3.5,4.2-6.1,5.5
			c-2.6,1.3-5.4,2-8.5,2C988.4,945.9,985.6,945.2,983,943.9z M997.9,936.7c1.6-1.6,2.4-3.7,2.4-6.4c0-2.7-0.8-4.8-2.4-6.4
			c-1.6-1.6-3.7-2.4-6.3-2.4c-2.7,0-4.8,0.8-6.4,2.4c-1.6,1.6-2.4,3.7-2.4,6.4c0,2.7,0.8,4.8,2.4,6.4c1.6,1.6,3.7,2.4,6.4,2.4
			C994.2,939.2,996.3,938.4,997.9,936.7z"/>
		<path d="M1020.8,915.4v18.1c0,1.8,0.5,3.2,1.5,4.2c1,1,2.4,1.5,4.3,1.5c1.9,0,3.3-0.5,4.3-1.5c1-1,1.5-2.4,1.5-4.2v-18.1h8.1v18
			c0,2.7-0.6,5-1.9,6.8c-1.3,1.9-2.9,3.3-5.1,4.2c-2.1,0.9-4.5,1.4-7.1,1.4c-2.6,0-4.9-0.5-7-1.4c-2.1-0.9-3.7-2.3-4.9-4.2
			c-1.2-1.9-1.8-4.2-1.8-6.9v-18H1020.8z"/>
		<path d="M1069.9,915.4v5.9h-8.8v24.3h-8v-24.3h-8.8v-5.9H1069.9z"/>
		<path d="M1102.6,915.4v30.2h-8.1v-12.4H1082v12.4h-8v-30.2h8v11.8h12.5v-11.8H1102.6z"/>
		<path d="M1138.9,940.2h-12.3l-2,5.3h-8.4l12-30.2h9.3l12,30.2h-8.5L1138.9,940.2z M1136.8,934.6l-4.1-11.1l-4.1,11.1H1136.8z"/>
		<path d="M1174.5,915.4v5.9h-13.5v6.4h10.1v5.7h-10.1v12.2h-8v-30.2H1174.5z"/>
		<path d="M1195.6,945.6l-6.9-11.4h-1.9v11.4h-8v-30.2h13.5c2.6,0,4.8,0.4,6.7,1.2c1.8,0.8,3.2,2,4.1,3.4c0.9,1.4,1.4,3.1,1.4,4.8
			c0,2-0.6,3.8-1.9,5.4c-1.2,1.6-3.1,2.7-5.5,3.4l7.6,12H1195.6z M1186.8,929h5c1.5,0,2.6-0.3,3.3-1c0.7-0.7,1.1-1.6,1.1-2.8
			c0-1.1-0.4-2-1.1-2.7c-0.7-0.7-1.8-1-3.3-1h-5V929z"/>
		<path d="M1217.5,915.4v30.2h-8v-30.2H1217.5z"/>
		<path d="M1224.1,922.5c1.4-2.3,3.4-4.2,5.9-5.5c2.5-1.3,5.4-2,8.6-2c3.9,0,7.3,0.9,10.1,2.8c2.8,1.9,4.7,4.5,5.6,7.7h-8.9
			c-0.7-1.3-1.6-2.2-2.8-2.9c-1.2-0.7-2.6-1-4.1-1c-2.5,0-4.5,0.8-6,2.4c-1.5,1.6-2.3,3.7-2.3,6.3c0,2.6,0.8,4.7,2.3,6.3
			c1.5,1.6,3.5,2.4,6,2.4c1.5,0,2.9-0.3,4.1-1c1.2-0.7,2.1-1.6,2.8-2.9h8.9c-0.9,3.3-2.8,5.8-5.6,7.7c-2.8,1.9-6.2,2.8-10.1,2.8
			c-3.2,0-6.1-0.7-8.6-2c-2.5-1.3-4.5-3.1-5.9-5.4c-1.4-2.3-2.1-5-2.1-8C1222,927.4,1222.7,924.8,1224.1,922.5z"/>
		<path d="M1279.8,940.2h-12.3l-2,5.3h-8.4l12-30.2h9.3l12,30.2h-8.5L1279.8,940.2z M1277.7,934.6l-4.1-11.1l-4.1,11.1H1277.7z"/>
	</g>
	<g>
		<path d="M1311.2,628.8h0.6c7.9,0,14.4,4.1,21.6,15.4c4.7,7.3,6.3,9.6,10.3,9.6c4,0,6.2-2.2,6.2-6.6c0-5.1-2.7-6.9-6.7-7.6v-10.9
			c7.9,0.8,14.4,6.6,14.4,18.6c0,13.4-7,18-13.8,18c-6.6,0-9.8-3.3-15.7-12.8c-4-6.4-6.6-9-8.6-9.9V667l-8.3-1.4V628.8z"/>
		<path d="M1334.2,713.1c-12.5,0-23.9-4.5-23.9-20c0-15.3,11-20,23.6-20c12.5,0,23.6,5.2,23.6,20.2
			C1357.5,707.8,1347.2,713.1,1334.2,713.1z M1334.1,684.7c-8.4,0-15.8,1.1-15.8,8.5c0,7.2,7,8.1,15.9,8.1c8.8,0,15.5-1.2,15.5-8
			C1349.7,686.7,1343.9,684.7,1334.1,684.7z"/>
		<path d="M1311.2,720.1h0.6c7.9,0,14.4,4.1,21.6,15.4c4.7,7.3,6.3,9.6,10.3,9.6c4,0,6.2-2.2,6.2-6.6c0-5.1-2.7-6.9-6.7-7.6v-10.9
			c7.9,0.8,14.4,6.6,14.4,18.6c0,13.4-7,18-13.8,18c-6.6,0-9.8-3.3-15.7-12.8c-4-6.4-6.6-9-8.6-9.9v24.7l-8.3-1.4V720.1z"/>
		<path d="M1345,764.3c5.6,0.7,12.5,5.3,12.5,18.3c0,12.1-6,17.4-12.4,17.4c-5.5,0-8.1-3.6-9.3-6.4h-0.2c-1.1,3.4-3.9,8.5-11,8.5
			c-6.6,0-14.4-4.6-14.4-19.5c0-14,7.4-18.7,13.4-19.2v11c-3.1,0.7-5.8,3.2-5.8,8.5c0,5.2,2.9,7.8,7,7.8c4.2,0,6.8-2.5,6.8-8.5v-4.7
			h7.6v4.1c0,5.2,1.5,7.3,5.3,7.3c3.1,0,5.2-2.1,5.2-6.6c0-5.3-2.6-6.5-4.8-7.1V764.3z"/>
	</g>
	<rect x="1310.3" y="820.2" width="47.2" height="125.7"/>
	<g>
		<path d="M315,746.1c6.5,2.4,12.7,4.4,18.6,7.1c12.5,5.7,22.2,14.5,27.7,27.3c2.8,6.4,5.1,13.1,5,20.3c0,3.5,0.9,7,0.7,10.4
			c-0.5,8.7-2,17.2-5.4,25.5c-5.4,13.4-14.2,23.4-25.9,31.2c-6.5,4.3-13.7,6.7-21.2,8c-8.5,1.5-17,3-25.6,4
			c-7.6,0.9-15.3,1.5-22.9,1.5c-42.9,0.1-85.8,0.1-128.7,0.1c-1.3,0-2.6,0-4.1,0c0-84.8,0-169.2,0-253.9c1.3-0.1,2.5-0.2,3.7-0.2
			c48.2,0,96.4,0,144.6,0c6.7,0,13.3,1.3,20,2.1c6.5,0.9,12.5,3.1,18.3,5.5c13,5.6,22.8,15,29.2,27.6c2.7,5.3,4.6,11,5.4,17.1
			c0.8,5.8,1.4,11.5,0.7,17.3c-2.7,21.7-13.3,37.6-33.7,46.4C319.2,744.4,317.2,745.2,315,746.1z M212,826.7
			c0.8,0.1,1.5,0.2,2.1,0.2c12.7,0,25.4,0.2,38.1-0.1c7.2-0.1,14.2-0.8,21.2-3.4c7.6-2.9,11.7-8.2,14-15.4
			c1.7-5.1,1.3-10.3-0.3-15.4c-2-6.5-6.1-11-12.7-13.5c-3.6-1.3-7-2.3-10.8-2.4c-3.7-0.1-7.4-1.2-11.1-1.2
			c-12.4-0.2-24.9-0.1-37.3-0.1c-1,0-2.1,0.2-3.1,0.3C212,792.8,212,809.7,212,826.7z M212,726.8c0.8,0.2,1.2,0.3,1.6,0.3
			c11.8,0,23.6,0.1,35.3-0.1c4.1-0.1,8.3-0.7,12.4-1.5c6.3-1.3,11.6-4.5,14.6-10.5c3.5-7,3.3-14.3,1.1-21.5
			c-2-6.6-6.9-10.6-13.5-12.4c-3.7-1-7.6-1.7-11.4-1.8c-12.9-0.3-25.7-0.3-38.6-0.4c-0.5,0-1,0.2-1.5,0.4
			C212,695.3,212,710.9,212,726.8z"/>
		<path d="M554.9,769.2c1.5,2.8,4.6,2.6,7,3.6c5.6,2.4,11.1,4.8,15.3,9.4c7.5,8,14.7,16.3,19.8,26.1c9.4,17.9,18.6,35.9,27.8,53.9
			c2.8,5.4,5.5,10.7,8.3,16.1c0.5,0.9,0.8,1.9,1.3,3.1c-29.6,0-58.7,0-88.2,0c-0.7-1.2-1.4-2.4-2.1-3.7
			c-12.2-22.6-24.3-45.2-36.6-67.8c-3.4-6.2-7-12.4-10.8-18.4c-4.1-6.7-10.4-10.5-17.9-12c-4.6-0.9-9.5-0.9-14.7-1.3
			c0,34.7,0,68.9,0,103.2c-26.4,0-52.3,0-78.4,0c0-84.6,0-169,0-253.6c0.7-0.1,1.5-0.3,2.2-0.3c45.5,0,91,0,136.4,0.1
			c7.4,0,14.9,0.8,22.3,1.4c4.4,0.4,8.7,0.9,13,1.8c9.4,2,18.7,4.6,26.8,10.2c7.8,5.4,14.2,12.2,18.7,20.5
			c4.3,7.9,7.4,16.2,7.9,25.3c0.3,5.8,1.2,11.6,0.7,17.3c-1.8,25-13.4,44-35.4,56.4c-5.6,3.1-11.5,5.7-17.9,6.8
			C558.7,767.6,556.9,768.5,554.9,769.2z M464.4,730.5c1.6,0,3,0,4.3,0c6.8,0,13.5-0.2,20.3,0c9.8,0.3,19.2-1.5,28.7-3.5
			c11-2.3,18.1-12.5,17.7-23.2c-0.1-3.1-1-6.2-1.8-9.3c-1.6-5.9-5.3-9.8-11.1-11.8c-3.7-1.3-7.3-2.8-11.5-2.6
			c-3.4,0.2-6.9-1.1-10.3-1.2c-11-0.2-21.9-0.1-32.9-0.1c-1.1,0-2.1,0.1-3.3,0.2C464.4,696.1,464.4,713,464.4,730.5z"/>
		<path class="st0" d="M1277,804.6c-0.4,9.9-3.5,19-7.9,27.9c-9.2,18.6-23.8,30.8-42.5,38.6c-8.6,3.6-17.5,5.9-26.8,7.6
			c-19.9,3.5-39.7,3.2-59.7,1.8c-6-0.4-11.9-1.1-17.8-2.1c-4.4-0.7-8.6-2.1-12.9-3.3c-2.2-0.6-4.4-1.2-6.6-1.9
			c-20.5-7-34.7-21-44.7-39.9c-3.2-6.1-5.5-12.4-7.1-19c-1-4.2-2.2-8.4-3-12.7c-0.3-1.7-0.1-3.5-0.1-5.6c24.8-1.5,49.5-3,74-4.5
			c1.3,5,2.3,9.8,3.8,14.4c3.1,9.5,9,16.7,17.7,21.8c5.8,3.4,12,5,18.6,5.3c6.4,0.3,12.8,0.6,19.1-1.6c4.4-1.6,8.7-3.2,12.2-6.4
			c12.2-10.9,10.7-26.6-2.4-35.6c-3-2.1-6.5-3.7-10-4.9c-6.9-2.3-13.8-4.3-20.9-6.1c-8-2-16.2-3.6-24.3-5.5c-3.7-0.9-7.3-2.4-11-3.5
			c-8.5-2.6-16.9-5.5-24.8-9.5c-13.5-6.7-25.7-15.2-33.9-28.4c-4.2-6.8-6.6-14.2-8.4-21.9c-0.7-2.8-0.2-5.9-0.2-8.9
			c-0.5-19.7,7.5-35.6,21.5-48.8c6-5.6,13-9.6,20.3-13.2c8.3-4,17-6.2,26-8c10.6-2.1,21.3-2.9,32-3.1c8.4-0.1,16.8,0,25.1,0.6
			c10.1,0.8,20.2,1.9,30,4.9c9.8,3,19.5,6.4,27.9,12.6c10.7,7.9,18.4,17.9,23,30.6c2.7,7.2,4.7,14.5,5.5,22.1c0,0.4,0.4,0.7,0.5,1.1
			c0.1,0.2,0,0.5-0.1,1.2c-2.8,0.2-5.7,0.4-8.7,0.6c-0.5,0-1.1,0-1.6,0.1c-8.9,0.5-17.9,1-26.8,1.6c-0.5,0-1.1,0-1.6,0.1
			c-11.7,0.7-23.5,1.3-35.5,2c0.1-5.5-1.8-10-4-14.3c-3.2-6.4-8.1-11.1-15.1-13.8c-8.8-3.4-17.7-4.2-26.8-3
			c-7.6,1-14.3,4.4-17.8,11.8c-2.4,5-2.2,9.7,1.3,14.4c2.4,3.2,5.8,5.5,9.4,6.8c5.7,2.1,11.7,3.4,17.6,4.9c4.1,1,8.2,2,12.3,2.9
			c4.7,1,9.4,1.7,14.1,3c7.4,1.9,14.7,4.1,22,6.3c7,2.2,14.1,4.1,20.8,6.9c15,6.3,28.6,14.7,37.9,28.6c5.7,8.5,8.8,17.9,10.2,28.1
			c0.7,5.1,0.9,10.2,0.6,15.3C1277.4,803.5,1277.2,804,1277,804.6z"/>
		<path class="st0" d="M1025.6,703.8c-3.6,0.8-6.8,1.6-10,2.3c-8.4,1.9-16.7,3.8-25.1,5.6c-10.3,2.2-20.7,4.4-31,6.5
			c-3,0.6-3.4,0.4-4.5-2.8c-2.1-5.7-4.4-11.2-8.5-15.8c-6.3-7-13.9-11.9-23.1-13.8c-16.3-3.4-31.6-1.3-44.6,10
			c-7.3,6.4-12.4,14.4-14.8,23.9c-0.8,3.2-2.1,6.3-2.6,9.5c-0.6,3.5-0.7,7.1-0.9,10.6c-0.8,12.6-0.8,25.2,0.8,37.7
			c1.1,9.3,3.1,18.6,8.2,26.9c3.9,6.4,9.3,11.1,15.8,14.8c8.3,4.7,17.2,5.5,26.3,5c6.8-0.4,13.4-1.4,19.8-4.2
			c6.6-2.9,11.5-7.5,15.6-13.1c3.3-4.6,5.7-9.7,7.6-15c1.7-4.9,3.4-9.8,5.2-15.1c22.5,6.6,45.1,13.3,68.1,20.1
			c-1.1,3.9-1.9,8-3.4,11.7c-2.7,6.9-5.4,13.9-8.9,20.5c-9.6,18.1-23.6,31.9-42.2,40.8c-8.8,4.2-18,6.9-27.7,8.7
			c-17.5,3.2-35.1,3.3-52.7,2.1c-8.3-0.5-16.5-1.4-24.5-3.3c-7.3-1.7-14.5-3.8-21.5-6.9c-24.2-10.8-40.5-29.4-52.6-52.3
			c-4.2-7.9-6.8-16.5-8.8-25.1c-1.1-4.9-2.5-9.8-3.2-14.7c-0.7-4.8-0.8-9.7-0.7-14.5c0.1-11.1-0.1-22.2,0.8-33.3
			c0.5-6.8,2.5-13.5,4.2-20.2c1.5-5.9,3-11.8,5.5-17.3c10.6-22.8,26.6-40.5,49.5-51.7c5.3-2.6,10.7-5.3,16.5-6.7
			c7.2-1.7,14.5-3.4,21.8-4.8c15.8-3.1,31.7-2.9,47.5-1.6c11.3,0.9,22.4,2.8,33.2,6.3c25.7,8.4,44.1,25.2,56.2,49
			C1020.1,690,1022.6,696.8,1025.6,703.8z"/>
		<path d="M754.3,881.4c-31.6,0-63.2,0-94.9,0c-0.8-2.8-1-248.4-0.2-253.7c31.6,0,63.2,0,94.9,0C754.9,630.5,755.1,876,754.3,881.4z
			"/>
		<path class="st1" d="M752.2,421.2c1.2,0,2.4,0,3.6,0c-0.7,0.8-1.6,1.3-0.6,2.7c1.3,1.7,2.3,3.6,3.4,5.5
			c11.2,19.1,22.4,38.2,33.6,57.2c10.3,17.5,20.8,35,31.1,52.6c11.2,18.9,22.4,37.9,33.5,56.8c-1.6,0.1-3.2,0.4-4.8,0.4
			c-49.5-0.1-99-0.3-148.6-0.4c-16.4,0-32.7,0-49.1,0c-1.5,0-3-0.1-4.4-0.2c0.5-1,0.9-2,1.5-2.9c7.3-12.4,14.6-24.7,21.9-37.1
			c22.5-38.2,45-76.5,67.5-114.7c3.6-6.1,7-12.2,10.4-18.3C751.6,422.2,751.9,421.7,752.2,421.2z"/>
		<path class="st2" d="M357.3,576.1c-5.8-0.4-11-2.7-15.9-5.6c-45.6-26.6-91.2-53.1-136.8-79.6c-19.8-11.5-39.5-23-59.3-34.5
			c-11.7-6.8-17.5-17.6-14.5-30.8c3.7-16.5,17.7-26.3,32-24.2c4.4,0.6,8.6,2.1,12.5,4.4c36.8,21.5,73.6,42.9,110.5,64.3
			c28.9,16.8,57.8,33.6,86.6,50.4c7.8,4.6,13.5,10.8,15.1,20c2.8,16.6-10,35.9-29.5,35.6C357.8,576.1,357.6,576.1,357.3,576.1z"/>
		<path class="st3" d="M1084.1,153.7c11.4-2,20.9,2,28.4,10.3c7.3,8.1,9,17.7,5.3,28c-0.8,2.4-2.1,4.7-3.3,6.9
			c-38.1,65.5-76.2,130.9-114.3,196.4c-4.4,7.6-10.5,13-19.3,14.9c-18.3,3.8-37.4-11.7-36.2-30c0.3-5.4,2.2-10.2,4.9-14.9
			c11.4-19.5,22.7-39.1,34.1-58.6c26.7-45.8,53.4-91.6,80-137.5c2.4-4.1,5.2-7.9,9.1-10.8c3.3-2.4,6.9-4.3,11-4.7
			c0,0,0.2,0.1,0.2,0.1L1084.1,153.7z"/>
		<path class="st4" d="M1111.8,542.8c0.9-9.1,5.8-15.6,13.3-20.2c6.4-4,13.1-7.6,19.7-11.4c38.6-22.1,77.2-44.3,115.8-66.4
			c21.8-12.5,43.6-25.1,65.5-37.4c17.4-9.8,34-0.7,40.6,13.3c4,8.5,4.4,17.2,0.2,25.8c-2.6,5.2-6.7,9.1-11.8,12
			c-17.7,10.2-35.4,20.3-53.1,30.5c-34.5,19.8-69,39.5-103.5,59.3c-14.4,8.3-28.8,16.6-43.3,24.8c-11.2,6.3-23,5.3-32.2-2.6
			c-8.1-6.9-12-15.8-11.4-26.6C1111.6,543.5,1111.7,543.2,1111.8,542.8z"/>
		<path class="st5" d="M376.4,183.1c0.4-11.5,6.1-19.8,16-25.1c14.7-7.8,30.3-4,38.7,10.2c8.5,14.4,16.8,29.1,25.1,43.6
			c29.3,51.1,58.5,102.1,87.7,153.2c1.9,3.3,3.7,6.7,4.9,10.2c4.5,14.2-3.6,29.6-18.1,35c-16.1,6-29.2-1-36-12.9
			c-13.7-24-27.4-47.9-41.1-71.9c-24.1-42-48.1-84.1-72.2-126.1c-1.5-2.7-3-5.4-4.1-8.3c-0.7-2-0.6-4.2-0.8-6.4
			C376.4,184.2,376.4,183.6,376.4,183.1z"/>
		<path class="st1" d="M739.2,54.1c2.1,0,4.2,0.1,6.3,0.1c0.4,0.1,0.7,0.2,1.1,0.2c14.6,1.8,24.6,12.9,24.9,27.9
			c0.2,11.6,0.1,23.3,0,34.9c-0.1,21.2-0.4,42.5-0.4,63.7c-0.1,43.6-0.1,87.2-0.4,130.7c0,9.6-2.7,18.3-10.9,24.5
			c-14.4,10.7-36.2,6.4-44.5-8.9c-2.3-4.3-3.3-8.9-3.3-13.7c0-6.4,0.1-12.7,0.1-19.1c0.1-50.7,0.2-101.5,0.3-152.2
			c0-14.9,0-29.8,0.1-44.7c0-5.5,0.2-11.1,0.3-16.6c0.2-14.1,10.9-23.8,21.1-25.9c0.6-0.1,1.2-0.3,1.8-0.4c0.8-0.1,1.5-0.2,2.3-0.3
			C738.4,54.3,738.8,54.2,739.2,54.1z"/>
		<path class="st6" d="M856.9,596c-11.2-18.9-22.4-37.9-33.5-56.8c-10.4-17.5-20.8-35-31.1-52.6c-11.2-19.1-22.4-38.2-33.6-57.2
			c-1.1-1.9-2.1-3.8-3.4-5.5c-1-1.3-0.1-1.9,0.6-2.7c2.9,0,5.8,0.1,8.7,0.1c0,0,0.1,0.3,0.1,0.3l0.1-0.2c0.7,0,1.4,0.1,2.1,0.1
			c0,0,0.3,0.2,0.3,0.2l0.3-0.2c1.4,0.1,2.8,0.1,4.2,0.2c0,0,0.2,0.1,0.2,0.1s0.2-0.1,0.2-0.1c3.1,0.1,6.1,0.3,9.2,0.4
			c0.3,0,0.5,0.1,0.8,0.1c7.9,0.9,15.8,1.6,23.6,2.9c7.7,1.2,15.4,3.3,23.1,4.6c18.1,3.1,35.3,9.1,52.3,15.6
			c17.2,6.6,33.6,14.8,49.5,24.1c1.3,0.7,2.5,1.6,3.7,2.4c-7.2,12.2-14.4,24.4-21.6,36.6c-12.5,21.2-24.9,42.3-37.3,63.5
			c-4.6,7.9-9.2,15.9-13.7,23.8C860.1,596,858.5,596,856.9,596z"/>
		<path class="st7" d="M751.3,422.7c-3.5,6.1-6.9,12.3-10.4,18.3c-22.5,38.3-45,76.5-67.5,114.7c-7.3,12.4-14.6,24.7-21.9,37.1
			c-0.5,0.9-1,1.9-1.5,2.9c-0.9,0-1.8,0-2.7,0c-4.9-8.4-9.7-16.8-14.7-25.2c-10.9-18.5-21.9-36.9-32.8-55.4
			c-5.9-10-11.7-20.1-17.6-30.1c-2.8-4.6-5.7-9.1-8.6-13.7c13.7-8.7,28.3-15.9,43.2-22.3c23.5-10,47.8-17.3,72.9-21.9
			c6.6-1.2,13.2-2,19.9-2.7c9.9-1.1,19.9-2,29.8-3c0.5-0.1,1.1,0.1,1.6,0.1c0.5,0,1,0,1.4-0.1c2.2,0,4.4,0,6.6-0.1
			C749.7,421.8,750.5,422.3,751.3,422.7z"/>
		<path class="st2" d="M573.5,471.3c2.9,4.6,5.8,9.1,8.6,13.7c5.9,10,11.7,20.1,17.6,30.1c10.9,18.5,21.9,36.9,32.8,55.4
			c4.9,8.4,9.8,16.8,14.7,25.2c-2.7,0-5.4,0.1-8.1,0.1c-16.1,0-32.3,0-48.4,0c-1.5,0-2.9-0.1-4.4-0.2c-1.3-1-2.6-0.9-4,0
			c-1.2,0.1-2.4,0.1-3.6,0.1c-38.1,0-76.2-0.1-114.3-0.1c-1.1,0-2.2-0.1-3.2-0.1c-1,0-2,0-3.1,0c-1.9,0-3.8,0-5.7,0
			c-0.2-0.2-0.4-0.4-0.5-0.7c6.5-11.9,14.2-23,22.3-33.8c26.4-35.1,58.2-64.3,95.4-87.5C570.9,472.7,572.2,472,573.5,471.3z"/>
		<path class="st8" d="M861.7,596c4.6-8,9.1-15.9,13.7-23.8c12.4-21.2,24.9-42.4,37.3-63.5c7.2-12.2,14.4-24.4,21.6-36.6
			c6.7,4.3,13.6,8.3,20.1,12.9c40,28.1,72.9,63,98.6,104.7c1.1,1.7,2,3.5,3,5.3c-0.1,0.6-0.1,1.1-0.2,1.7c-18.5,0-37,0-55.6,0
			c-44.6,0-89.2-0.1-133.8-0.1C864.9,596.3,863.3,596.1,861.7,596z"/>
		<path class="st5" d="M751.3,422.7c-0.8-0.4-1.6-0.9-2.4-1.3c1.1,0,2.2-0.1,3.3-0.1C751.9,421.7,751.6,422.2,751.3,422.7z"/>
		<path class="st9" d="M458.1,595.5c1,0,2,0,3.1,0C460.1,595.5,459.1,595.5,458.1,595.5z"/>
		<path class="st5" d="M742.3,421.4c-0.5,0-1,0-1.4,0.1C741.3,421.5,741.8,421.5,742.3,421.4z"/>
		<path class="st10" d="M376.4,183.1c0,0.5,0,1.1,0,1.6C376.4,184.2,376.4,183.6,376.4,183.1z"/>
		<path class="st11" d="M1055.9,596.5c0.1-0.6,0.1-1.1,0.2-1.7C1056.8,595.5,1057.3,596.1,1055.9,596.5z"/>
		<polygon class="st1" points="1084.1,153.7 1083.9,153.8 1083.8,153.7 1083.9,153.5 		"/>
		<path class="st9" d="M451.8,594.8c0.2,0.2,0.4,0.4,0.5,0.7C452.2,595.3,452,595,451.8,594.8z"/>
		<path class="st12" d="M357.3,576.1c0.2,0,0.5,0,0.7,0c0,0-0.3,0.1-0.3,0.1L357.3,576.1z"/>
		<path class="st11" d="M1111.8,542.8c-0.1,0.3-0.1,0.7-0.2,1C1111.6,543.5,1111.7,543.2,1111.8,542.8z"/>
		<path class="st11" d="M782.1,422.3c-0.3,0-0.5-0.1-0.8-0.1C781.6,422.3,781.9,422.3,782.1,422.3z"/>
		<path class="st1" d="M772.2,421.8l-0.2,0.1c0,0-0.2-0.1-0.2-0.1c0,0,0.2-0.2,0.2-0.2L772.2,421.8z"/>
		<polygon class="st1" points="767.6,421.6 767.3,421.7 767,421.5 767.3,421.4 		"/>
		<polygon class="st1" points="764.8,421.4 764.7,421.6 764.5,421.4 		"/>
	</g>
</g>
</svg>
