<?xml version="1.0" encoding="UTF-8" standalone="no"?>
<svg
   xmlns:dc="http://purl.org/dc/elements/1.1/"
   xmlns:cc="http://creativecommons.org/ns#"
   xmlns:rdf="http://www.w3.org/1999/02/22-rdf-syntax-ns#"
   xmlns:svg="http://www.w3.org/2000/svg"
   xmlns="http://www.w3.org/2000/svg"
   viewBox="0 0 440.00012 276.18787"
   height="276.18787"
   width="440.00012"
   xml:space="preserve"
   id="svg2"
   version="1.1"><metadata
     id="metadata8"><rdf:RDF><cc:Work
         rdf:about=""><dc:format>image/svg+xml</dc:format><dc:type
           rdf:resource="http://purl.org/dc/dcmitype/StillImage" /><dc:title></dc:title></cc:Work></rdf:RDF></metadata><defs
     id="defs6"><clipPath
       id="clipPath18"
       clipPathUnits="userSpaceOnUse"><path
         id="path16"
         d="M 0,296 H 380.577 V 0 H 0 Z" /></clipPath><clipPath
       id="clipPath870"
       clipPathUnits="userSpaceOnUse"><rect
         transform="scale(1,-1)"
         y="-257.11865"
         x="23.830507"
         height="215.72881"
         width="333"
         id="rect872"
         style="opacity:1;vector-effect:none;fill:#ffffff;fill-opacity:1;stroke:#8e40ff;stroke-width:0.30000001;stroke-linecap:butt;stroke-linejoin:miter;stroke-miterlimit:4;stroke-dasharray:0.60000002, 0.30000001;stroke-dashoffset:0;stroke-opacity:1;paint-order:markers stroke fill" /></clipPath></defs><g
     transform="matrix(1.3333333,0,0,-1.3333333,-33.718266,335.42719)"
     id="g10"><g
       clip-path="url(#clipPath870)"
       id="g12"><g
         clip-path="url(#clipPath18)"
         id="g14"><g
           transform="translate(340.8898,47.7629)"
           id="g20"><path
             id="path22"
             style="fill:#000000;fill-opacity:1;fill-rule:nonzero;stroke:none"
             d="m 0,0 c -1.784,0 -3.217,1.488 -3.217,3.3 v 6.588 c 0,1.83 1.433,3.305 3.217,3.305 h 4.675 c 1.784,0 3.219,-1.475 3.219,-3.305 V 3.3 C 7.894,1.488 6.459,0 4.675,0 Z M 7.958,16.522 H -2.563 -3.28 c -3.553,0 -6.442,-2.927 -6.442,-6.609 V 3.278 c 0,-3.66 2.869,-6.611 6.412,-6.611 h 0.03 11.238 0.027 c 3.548,0 6.414,2.951 6.414,6.611 v 6.635 c 0,3.682 -2.891,6.609 -6.441,6.609" /></g><g
           transform="translate(187.965,75.4085)"
           id="g24"><path
             id="path26"
             style="fill:#000000;fill-opacity:1;fill-rule:evenodd;stroke:none"
             d="m 0,0 v -30.979 h 10.32 v 21.94 l 21.94,-21.94 h 9.036 V 0 H 31.001 V -22.02 L 8.925,0 Z" /></g><g
           transform="translate(231.5559,75.4085)"
           id="g28"><path
             id="path30"
             style="fill:#000000;fill-opacity:1;fill-rule:evenodd;stroke:none"
             d="m 0,0 v -30.979 h 10.336 v 21.94 l 21.934,-21.94 h 9.037 V 0 H 31.022 V -22.02 L 8.946,0 Z" /></g><g
           transform="translate(302.656,64.2997)"
           id="g32"><path
             id="path34"
             style="fill:#000000;fill-opacity:1;fill-rule:evenodd;stroke:none"
             d="M 0,0 V -19.87 H 6.626 V -5.784 L 20.671,-19.87 h 5.812 V 0 H 19.855 L 19.893,-14.138 5.736,0 Z" /></g><g
           transform="translate(159.8495,54.7325)"
           id="g36"><path
             id="path38"
             style="fill:#000000;fill-opacity:1;fill-rule:nonzero;stroke:none"
             d="m 0,0 c 0,-2.83 2.32,-5.143 5.163,-5.143 h 20.655 v -5.16 H -0.09 c -5.694,0 -10.304,4.559 -10.304,10.255 V 20.676 H 0 Z" /></g><g
           transform="translate(281.5984,56.016)"
           id="g40"><path
             id="path42"
             style="fill:#000000;fill-opacity:1;fill-rule:nonzero;stroke:none"
             d="m 0,0 v 1.718 c 0,1.825 1.428,3.27 3.186,3.27 h 6.262 c 1.749,0 3.164,-1.445 3.164,-3.27 V 0 Z M 12.668,8.284 H -0.048 c -3.528,0 -6.388,-2.924 -6.388,-6.543 V -11.49 H 0 v 8.23 h 12.612 l 0.016,-8.23 h 6.403 V 1.741 c 0,3.619 -2.815,6.543 -6.363,6.543" /></g><g
           transform="translate(55.5166,44.7812)"
           id="g44"><path
             id="path46"
             style="fill:#ffffff;fill-opacity:1;fill-rule:nonzero;stroke:none"
             d="M 0,0 -29.829,51.66 0,103.319 H 59.653 L 89.471,51.66 59.653,0 Z" /></g><g
           transform="translate(55.5166,148.1106)"
           id="g48"><path
             id="path50"
             style="fill:#f68712;fill-opacity:1;fill-rule:nonzero;stroke:none"
             d="M 0,0 -29.829,51.661 0,103.318 H 59.653 L 89.471,51.661 59.653,0 Z" /></g><g
           transform="translate(144.6874,96.9663)"
           id="g52"><path
             id="path54"
             style="fill:#f89c35;fill-opacity:1;fill-rule:nonzero;stroke:none"
             d="M 0,0 -29.518,51.139 0,102.281 H 59.049 L 71.067,81.448 88.534,51.134 71.075,20.838 59.049,0 Z" /></g><g
           transform="translate(218.8047,123.9144)"
           id="g56"><path
             id="path58"
             style="fill:#f9b25f;fill-opacity:1;fill-rule:nonzero;stroke:none"
             d="m 0,0 -13.434,23.408 h 26.87 z m -15.023,-26.182 -13.803,24.039 14.318,24.944 13.8,-24.037 z m -27.987,-0.675 13.474,23.481 13.479,-23.481 z m -15.584,24.84 14.144,24.629 14.202,-24.75 -14.135,-24.638 z m -14.266,-24.84 13.555,23.605 13.547,-23.605 z m -1.286,0.189 -14.143,24.641 14.14,24.634 14.142,-24.636 z m -14.849,-25.871 -14.033,24.451 h 28.068 z m -14.625,-25.483 h -0.111 l -14.085,24.54 13.967,24.343 14.146,-24.641 z m -73.45,24.333 14.078,24.52 13.786,-24.027 -14.059,-24.494 z m -14.723,25.601 h 28.017 l -13.993,-24.385 z m 13.834,24.99 13.634,-23.759 h -27.272 z m 14.853,25.879 14.275,-24.833 -14.153,-24.659 -14.265,24.856 z m -13.765,26.627 13.968,24.342 13.814,-24.063 -13.969,-24.343 z m -14.644,25.514 h 27.83 L -177.62,50.715 Z m 13.473,25.203 13.76,-23.971 H -191.8 Z m 14.852,25.872 14.434,-25.144 -14.162,-24.595 -14.411,25.108 z m 29.15,0.424 -14.004,-24.327 -13.965,24.327 z m 14.65,-24.989 -14.139,-24.634 -13.814,24.068 14.136,24.637 z m 14.343,24.989 -13.63,-23.749 -13.631,23.749 z m 15.483,-25.209 -14.14,-24.632 -14.261,24.852 14.139,24.633 z m 14.382,-25.058 h -27.341 l 13.672,23.82 z m -13.816,-76.942 -13.887,24.196 h 27.775 z m 0.003,-2.474 13.537,-23.595 h -27.081 z m -29.206,1.609 14.138,24.631 14.355,-25.002 -14.141,-24.638 z m -14.19,-26.435 h 27.723 l -13.862,-24.15 z m 13.849,-26.65 13.39,-23.284 h -26.751 z m -16.414,-23.284 h -27.076 l 13.538,23.588 z m 0.161,49.934 -13.699,-23.872 -13.701,23.872 z m 0.223,1.231 h -27.091 l 13.536,23.582 z m 0.355,50.265 -13.865,-24.154 -13.864,24.154 z m -0.498,1.235 h -27.326 l 13.665,23.804 z m -26.808,51.511 13.472,23.472 13.472,-23.472 z m 26.919,-1.232 -13.772,-23.996 -13.776,23.996 z m 15.339,-25.456 -14.135,-24.63 -14.268,24.851 14.139,24.632 z m -13.209,26.688 13.794,24.039 13.797,-24.039 z m 13.922,-25.45 -13.899,24.218 h 27.799 z m -13.546,-26.061 13.543,23.59 13.54,-23.59 z m -0.489,-1.235 h 27.351 l -13.675,-23.823 z m -1.006,-49.401 -13.789,24.019 13.977,24.336 13.781,-24.015 z m 14.682,23.099 13.753,-23.963 h -27.508 z m 28.99,52.987 -14.142,-24.633 -13.782,24.011 14.141,24.628 z m 0.711,-1.238 13.895,-24.212 h -27.79 z m -0.002,2.476 -13.539,23.591 h 27.08 z m -44.324,-129.353 -14.246,24.828 14.162,24.682 14.368,-24.987 -14.072,-24.523 z M -60.009,49.719 -74.149,25.088 -88.502,50.09 -74.361,74.727 Z M -45.544,74.922 -59.305,50.951 -73.064,74.922 Z M -72.98,24.643 -59.298,48.482 -45.615,24.643 Z M -45.403,23.408 -59.297,-0.796 -73.186,23.408 Z M -30.13,50.021 -44.449,25.075 -58.591,49.71 -44.272,74.656 Z M -15.839,74.922 -29.42,51.263 -42.996,74.922 Z M -15.587,23.408 -29.536,-0.9 -43.492,23.408 Z m -27.698,1.235 13.865,24.143 13.859,-24.143 z M -0.718,49.308 -14.51,25.285 -28.71,50.026 -14.919,74.045 Z M 13.438,24.643 h -26.889 l 13.446,23.425 z m -27.989,51.511 h -59.221 l -29.564,51.502 h -60.284 l -29.896,-51.995 29.697,-51.642 -29.011,-50.547 -0.586,-1.016 29.633,-51.721 0.015,0.01 h 60.821 l 29.381,51.167 h 58.849 l 29.93,52.115 z" /></g></g></g></g></svg>