<?xml version="1.0" encoding="UTF-8"?>
<!DOCTYPE svg PUBLIC "-//W3C//DTD SVG 1.1//EN" "http://www.w3.org/Graphics/SVG/1.1/DTD/svg11.dtd">
<!-- Creator: CorelDRAW 2018 (64 Bit) -->
<svg xmlns="http://www.w3.org/2000/svg" xml:space="preserve" width="700px" height="296px" version="1.1" shape-rendering="geometricPrecision" text-rendering="geometricPrecision" image-rendering="optimizeQuality" fill-rule="evenodd" clip-rule="evenodd"
viewBox="0 0 733.65 310.62"
 xmlns:xlink="http://www.w3.org/1999/xlink">
 <g id="Camada_x0020_1">
  <metadata id="CorelCorpID_0Corel-Layer"/>
  <g id="_1704200580608">
   <g>
    <path fill="black" d="M23.33 284.5c-0.27,-0.81 -0.81,-1.48 -1.49,-2.03 -0.67,-0.54 -1.35,-0.81 -2.3,-1.08 -0.94,-0.27 -1.89,-0.27 -2.97,-0.27 -0.81,0 -1.63,0.14 -2.44,0.27 -0.81,0.14 -1.62,0.54 -2.3,0.95 -0.67,0.4 -1.35,0.95 -1.76,1.62 -0.4,0.68 -0.67,1.49 -0.67,2.44 0,0.81 0.13,1.35 0.4,2.03 0.27,0.54 0.68,0.94 1.08,1.35 0.41,0.41 0.95,0.68 1.63,0.95 0.67,0.27 1.35,0.54 2.03,0.67l4.19 1.09c0.95,0.27 1.9,0.54 2.84,0.94 0.95,0.41 1.76,0.95 2.44,1.49 0.67,0.54 1.22,1.49 1.76,2.44 0.4,0.94 0.67,2.16 0.67,3.52 0,1.62 -0.4,3.11 -1.08,4.19 -0.81,1.22 -1.76,2.16 -2.84,2.98 -1.22,0.81 -2.43,1.35 -3.92,1.75 -1.49,0.41 -2.84,0.54 -4.33,0.54 -1.9,0 -3.66,-0.26 -5.14,-0.67 -1.63,-0.41 -2.98,-1.08 -4.06,-1.9 -1.09,-0.81 -1.9,-2.02 -2.57,-3.38 -0.54,-1.35 -0.81,-3.11 -0.68,-5l4.19 0c0,1.35 0.14,2.57 0.54,3.51 0.41,0.95 0.95,1.76 1.76,2.3 0.81,0.55 1.63,0.95 2.71,1.22 1.08,0.27 2.16,0.41 3.52,0.41 0.94,0 1.89,-0.14 2.84,-0.41 0.95,-0.27 1.76,-0.54 2.57,-1.08 0.68,-0.54 1.35,-1.08 1.76,-1.89 0.4,-0.82 0.67,-1.63 0.67,-2.71 0,-0.81 -0.13,-1.49 -0.4,-2.03 -0.27,-0.54 -0.68,-1.08 -1.22,-1.49 -0.54,-0.4 -1.08,-0.67 -1.76,-0.95 -0.67,-0.27 -1.35,-0.54 -2.16,-0.67l-4.33 -1.09c-0.95,-0.26 -1.9,-0.67 -2.71,-1.08 -0.81,-0.4 -1.62,-0.94 -2.3,-1.62 -0.67,-0.68 -1.22,-1.35 -1.49,-2.3 -0.27,-0.95 -0.54,-1.9 -0.54,-3.11 0,-1.49 0.27,-2.84 0.95,-3.93 0.68,-1.08 1.49,-2.03 2.57,-2.84 1.08,-0.81 2.3,-1.35 3.65,-1.76 1.36,-0.4 2.71,-0.54 4.2,-0.54 1.62,0 2.97,0.14 4.46,0.54 1.36,0.41 2.57,0.95 3.66,1.76 1.08,0.81 1.89,1.9 2.43,3.11 0.54,1.22 0.81,2.85 0.81,4.61l-4.19 0c-0.14,-0.95 -0.27,-2.04 -0.68,-2.85z"/>
    <path fill="black" d="M32.4 289.51c0.81,-2.3 1.89,-4.33 3.38,-6.09 1.49,-1.76 3.25,-3.11 5.41,-4.19 2.17,-1.09 4.6,-1.63 7.17,-1.63 2.03,0 3.79,0.41 5.55,1.09 1.62,0.67 2.98,1.75 4.19,2.97 1.22,1.22 2.03,2.71 2.57,4.47 0.55,1.76 0.95,3.51 0.95,5.41 0,2.43 -0.4,4.87 -1.22,7.17 -0.81,2.3 -1.89,4.33 -3.38,6.09 -1.49,1.76 -3.25,3.11 -5.28,4.19 -2.16,1.09 -4.46,1.63 -7.03,1.63 -4.33,0 -7.71,-1.22 -10.01,-3.66 -2.3,-2.43 -3.52,-5.82 -3.52,-10.14 0,-2.57 0.4,-5.01 1.22,-7.31zm3.51 11.5c0.41,1.22 0.95,2.3 1.76,3.25 0.81,0.94 1.76,1.62 2.84,2.03 1.22,0.54 2.58,0.81 4.06,0.81 2.03,0 3.93,-0.41 5.55,-1.35 1.62,-0.95 2.98,-2.17 3.92,-3.52 1.09,-1.49 1.9,-3.11 2.44,-5.01 0.54,-1.89 0.81,-3.65 0.81,-5.55 0,-1.48 -0.13,-2.84 -0.54,-4.06 -0.41,-1.21 -0.95,-2.29 -1.76,-3.24 -0.81,-0.95 -1.76,-1.63 -2.84,-2.17 -1.08,-0.54 -2.43,-0.81 -3.79,-0.81 -2.16,0 -4.06,0.41 -5.68,1.35 -1.62,0.95 -2.98,2.17 -4.06,3.66 -1.08,1.49 -1.89,3.11 -2.43,5 -0.55,1.9 -0.82,3.79 -0.82,5.69 0,1.21 0.27,2.57 0.54,3.92z"/>
    <path fill="black" d="M87.46 307.5c-2.3,2.03 -5.41,2.98 -9.33,2.98 -4.33,0 -7.71,-1.22 -10.01,-3.65 -2.3,-2.44 -3.52,-5.82 -3.52,-10.15 0,-2.57 0.4,-5.01 1.22,-7.31 0.81,-2.3 1.89,-4.33 3.38,-6.08 1.49,-1.76 3.25,-3.12 5.41,-4.2 2.16,-1.08 4.6,-1.62 7.17,-1.62 1.76,0 3.25,0.27 4.74,0.67 1.48,0.41 2.7,1.09 3.78,2.03 1.09,0.95 1.9,2.03 2.58,3.39 0.67,1.35 0.94,2.97 0.94,4.73l-4.19 0c0,-2.43 -0.68,-4.33 -2.17,-5.55 -1.49,-1.21 -3.38,-1.89 -5.68,-1.89 -2.17,0 -4.06,0.41 -5.68,1.35 -1.63,0.95 -2.98,2.17 -4.06,3.66 -1.08,1.49 -1.9,3.11 -2.44,5 -0.54,1.9 -0.81,3.79 -0.81,5.69 0,1.48 0.14,2.97 0.54,4.19 0.41,1.22 0.95,2.3 1.76,3.25 0.81,0.94 1.76,1.62 2.84,2.03 1.22,0.54 2.57,0.81 4.06,0.81 2.57,0 4.74,-0.68 6.36,-2.03 1.62,-1.35 2.71,-3.25 3.38,-5.82l4.2 0c-0.68,3.79 -2.17,6.49 -4.47,8.52z"/>
    <polygon fill="black" points="105.86,278.28 99.23,309.8 95.04,309.8 101.67,278.28 "/>
    <polygon fill="black" points="134.82,278.28 134.14,281.8 116.69,281.8 114.52,291.81 130.89,291.81 130.22,295.33 113.85,295.33 111.55,306.15 129.27,306.15 128.46,309.67 106.54,309.67 113.17,278.15 134.82,278.15 "/>
    <path fill="black" d="M151.05 278.28c3.93,0 6.9,1.08 8.93,3.25 2.03,2.16 2.98,5.14 2.98,8.79 0,2.98 -0.41,5.68 -1.22,7.98 -0.81,2.3 -2.03,4.47 -3.52,6.09 -1.48,1.63 -3.38,2.98 -5.54,3.93 -2.17,0.94 -4.47,1.35 -7.17,1.35l-12.05 0 6.63 -31.52 10.96 0 0 0.13zm-5.54 28.01c2.3,0 4.19,-0.41 5.81,-1.36 1.63,-0.94 2.98,-2.03 4.2,-3.51 1.08,-1.49 1.89,-3.12 2.43,-5.01 0.54,-1.89 0.82,-3.79 0.82,-5.68 0,-1.09 -0.14,-2.3 -0.41,-3.38 -0.27,-1.09 -0.68,-2.04 -1.35,-2.85 -0.68,-0.81 -1.49,-1.48 -2.71,-2.03 -1.08,-0.54 -2.57,-0.81 -4.33,-0.81l-6.76 0 -5.15 24.36 7.45 0 0 0.27z"/>
    <path fill="black" d="M185.28 278.28l5.69 31.52 -4.33 0 -1.49 -9.47 -13.26 0 -5.55 9.47 -4.6 0 18.94 -31.52 4.6 0zm-0.67 18.54l-2.3 -14.75 -0.14 0 -8.39 14.75 10.83 0z"/>
    <path fill="black" d="M211.53 278.28c3.92,0 6.9,1.08 8.93,3.25 2.03,2.16 2.98,5.14 2.98,8.79 0,2.98 -0.41,5.68 -1.22,7.98 -0.81,2.3 -2.03,4.47 -3.52,6.09 -1.49,1.63 -3.38,2.98 -5.55,3.93 -2.16,0.94 -4.46,1.35 -7.17,1.35l-12.04 0 6.63 -31.52 10.96 0 0 0.13zm-5.55 28.01c2.3,0 4.2,-0.41 5.82,-1.36 1.63,-0.94 2.98,-2.03 4.2,-3.51 1.08,-1.49 1.89,-3.12 2.43,-5.01 0.54,-1.89 0.81,-3.79 0.81,-5.68 0,-1.09 -0.13,-2.3 -0.4,-3.38 -0.27,-1.09 -0.68,-2.04 -1.36,-2.85 -0.67,-0.81 -1.48,-1.48 -2.7,-2.03 -1.08,-0.54 -2.57,-0.81 -4.33,-0.81l-6.77 0 -5.14 24.36 7.44 0 0 0.27z"/>
    <polygon fill="black" points="253.2,278.28 252.53,281.8 235.07,281.8 232.91,291.81 249.28,291.81 248.6,295.33 232.23,295.33 229.93,306.15 247.52,306.15 246.71,309.67 224.79,309.67 231.42,278.15 253.2,278.15 "/>
    <path fill="black" d="M283.24 278.28c3.11,0 5.28,0.68 6.76,2.03 1.49,1.35 2.03,3.11 2.03,5.55 0,0.94 -0.13,1.75 -0.4,2.57 -0.27,0.81 -0.68,1.62 -1.22,2.3 -0.54,0.67 -1.08,1.21 -1.89,1.76 -0.68,0.54 -1.63,0.81 -2.58,0.94l0 0.14c1.49,0.4 2.58,1.22 3.39,2.3 0.81,1.08 1.22,2.57 1.22,4.19 0,1.49 -0.27,2.84 -0.82,4.06 -0.54,1.22 -1.35,2.17 -2.43,3.11 -0.95,0.81 -2.17,1.49 -3.52,1.9 -1.35,0.4 -2.84,0.67 -4.33,0.67l-15.56 0 6.63 -31.52 12.72 0zm-4.33 28.01c0.54,0 1.22,0 2.03,-0.14 0.81,-0.13 1.62,-0.4 2.57,-0.81 0.81,-0.41 1.49,-1.08 2.16,-1.89 0.55,-0.82 0.95,-1.9 0.95,-3.39 0,-0.94 -0.13,-1.76 -0.54,-2.43 -0.41,-0.68 -0.81,-1.08 -1.49,-1.36 -0.54,-0.27 -1.35,-0.54 -2.03,-0.67 -0.67,-0.14 -1.62,-0.14 -2.43,-0.14l-8.93 0 -2.3 10.83 10.01 0zm2.3 -14.48c4.46,0 6.77,-2.03 6.77,-5.95 0,-0.95 -0.14,-1.63 -0.55,-2.17 -0.4,-0.54 -0.94,-0.95 -1.49,-1.22 -0.54,-0.27 -1.35,-0.4 -2.02,-0.54 -0.68,-0.13 -1.36,-0.13 -2.03,-0.13l-7.72 0 -2.16 10.01 9.2 0z"/>
    <path fill="black" d="M313 278.28c1.36,0 2.58,0.13 3.79,0.41 1.22,0.27 2.3,0.67 3.38,1.35 0.95,0.68 1.76,1.49 2.31,2.43 0.54,1.09 0.81,2.3 0.81,3.93 0,1.08 -0.14,2.03 -0.55,2.97 -0.4,0.95 -0.81,1.76 -1.48,2.57 -0.68,0.82 -1.36,1.36 -2.17,1.9 -0.81,0.54 -1.89,0.81 -2.84,0.95l0 0.13c0.68,0.27 1.22,0.54 1.76,0.95 0.54,0.4 0.81,0.95 1.08,1.62 0.27,0.54 0.41,1.22 0.54,2.03 0.14,0.68 0,1.49 0,2.3 0,0.68 -0.13,1.35 -0.27,2.03 -0.13,0.68 -0.27,1.35 -0.27,2.03 0,0.68 0,1.35 0,2.03 0,0.68 0.27,1.22 0.54,1.89l-4.46 0c-0.27,-0.54 -0.27,-1.48 -0.41,-2.57 0,-1.08 0.14,-2.57 0.41,-4.19 0.27,-1.35 0.27,-2.57 0.13,-3.38 -0.13,-0.82 -0.27,-1.49 -0.67,-2.03 -0.27,-0.41 -0.68,-0.81 -1.22,-0.95 -0.41,-0.13 -0.95,-0.27 -1.35,-0.27l-1.63 0 -9.33 0 -2.84 13.39 -4.2 0 6.63 -31.52 12.31 0zm-1.62 14.61c1.62,0 2.98,-0.27 3.92,-0.67 0.95,-0.41 1.76,-0.95 2.3,-1.63 0.55,-0.67 0.95,-1.35 1.09,-2.03 0.13,-0.67 0.27,-1.35 0.27,-1.89 0,-0.95 -0.14,-1.76 -0.54,-2.44 -0.41,-0.67 -0.82,-1.08 -1.36,-1.49 -0.54,-0.4 -1.21,-0.54 -2.03,-0.67 -0.81,-0.14 -1.48,-0.14 -2.3,-0.14l-8.38 0 -2.3 10.96 9.33 0z"/>
    <path fill="black" d="M345.21 278.28l5.68 31.52 -4.33 0 -1.49 -9.47 -13.26 0 -5.55 9.47 -4.6 0 18.95 -31.52 4.6 0zm-0.55 18.54l-2.3 -14.75 -0.13 0 -8.39 14.75 10.82 0z"/>
    <path fill="black" d="M375.92 284.5c-0.27,-0.81 -0.81,-1.48 -1.49,-2.03 -0.68,-0.54 -1.35,-0.81 -2.3,-1.08 -0.95,-0.27 -1.89,-0.27 -2.98,-0.27 -0.81,0 -1.62,0.14 -2.43,0.27 -0.81,0.14 -1.63,0.54 -2.3,0.95 -0.68,0.4 -1.35,0.95 -1.76,1.62 -0.41,0.68 -0.68,1.49 -0.68,2.44 0,0.81 0.14,1.35 0.41,2.03 0.27,0.54 0.68,0.94 1.08,1.35 0.41,0.41 0.95,0.68 1.63,0.95 0.67,0.27 1.35,0.54 2.02,0.67l4.2 1.09c0.95,0.27 1.89,0.54 2.84,0.94 0.95,0.41 1.76,0.95 2.44,1.49 0.67,0.54 1.21,1.49 1.75,2.44 0.41,0.94 0.68,2.16 0.68,3.52 0,1.62 -0.41,3.11 -1.08,4.19 -0.81,1.22 -1.76,2.16 -2.84,2.98 -1.22,0.81 -2.44,1.35 -3.93,1.75 -1.49,0.41 -2.84,0.54 -4.33,0.54 -1.89,0 -3.65,-0.26 -5.14,-0.67 -1.62,-0.41 -2.97,-1.08 -4.06,-1.9 -1.08,-0.81 -1.89,-2.02 -2.57,-3.38 -0.54,-1.35 -0.81,-3.11 -0.67,-5l4.19 0c0,1.35 0.14,2.57 0.54,3.51 0.41,0.95 0.95,1.76 1.76,2.3 0.81,0.55 1.62,0.95 2.71,1.22 1.08,0.27 2.16,0.41 3.51,0.41 0.95,0 1.9,-0.14 2.85,-0.41 0.94,-0.27 1.75,-0.54 2.57,-1.08 0.67,-0.54 1.35,-1.08 1.75,-1.89 0.41,-0.82 0.68,-1.63 0.68,-2.71 0,-0.81 -0.13,-1.49 -0.41,-2.03 -0.26,-0.54 -0.67,-1.08 -1.21,-1.49 -0.54,-0.4 -1.09,-0.67 -1.76,-0.95 -0.68,-0.27 -1.35,-0.54 -2.17,-0.67l-4.33 -1.09c-0.94,-0.26 -1.89,-0.67 -2.7,-1.08 -0.81,-0.4 -1.63,-0.94 -2.3,-1.62 -0.68,-0.68 -1.22,-1.35 -1.49,-2.3 -0.27,-0.95 -0.54,-1.9 -0.54,-3.11 0,-1.49 0.27,-2.84 0.95,-3.93 0.67,-1.08 1.48,-2.03 2.57,-2.84 1.08,-0.81 2.3,-1.35 3.65,-1.76 1.35,-0.4 2.71,-0.54 4.19,-0.54 1.63,0 2.98,0.14 4.47,0.54 1.35,0.41 2.57,0.95 3.65,1.76 1.08,0.81 1.9,1.9 2.44,3.11 0.54,1.22 0.81,2.85 0.81,4.61l-4.2 0c-0.13,-0.95 -0.4,-2.04 -0.67,-2.85z"/>
    <polygon fill="black" points="393.1,278.28 386.47,309.8 382.28,309.8 388.91,278.28 "/>
    <polygon fill="black" points="404.6,278.28 398.78,306.15 415.43,306.15 414.61,309.67 393.78,309.67 400.41,278.15 404.6,278.15 "/>
    <polygon fill="black" points="446.68,278.28 446,281.8 428.55,281.8 426.38,291.81 442.76,291.81 442.08,295.33 425.71,295.33 423.41,306.15 441,306.15 440.18,309.67 418.27,309.67 424.9,278.15 446.68,278.15 "/>
    <polygon fill="black" points="456.01,278.28 449.38,309.8 445.19,309.8 451.82,278.28 "/>
    <path fill="black" d="M475.36 278.28c1.36,0 2.57,0.13 3.79,0.41 1.22,0.27 2.3,0.67 3.38,1.35 0.95,0.68 1.76,1.49 2.3,2.43 0.54,1.09 0.81,2.3 0.81,3.93 0,1.08 -0.13,2.03 -0.54,2.97 -0.4,0.95 -0.81,1.76 -1.49,2.57 -0.67,0.82 -1.35,1.36 -2.16,1.9 -0.81,0.54 -1.89,0.81 -2.84,0.95l0 0.13c0.68,0.27 1.22,0.54 1.76,0.95 0.54,0.4 0.81,0.95 1.08,1.62 0.27,0.54 0.41,1.22 0.54,2.03 0.14,0.68 0,1.49 0,2.3 0,0.68 -0.13,1.35 -0.27,2.03 -0.13,0.68 -0.27,1.35 -0.27,2.03 0,0.68 0,1.35 0,2.03 0,0.68 0.27,1.22 0.54,1.89l-4.46 0c-0.27,-0.54 -0.27,-1.48 -0.41,-2.57 0,-1.08 0.14,-2.57 0.41,-4.19 0.27,-1.35 0.27,-2.57 0.13,-3.38 -0.13,-0.82 -0.27,-1.49 -0.67,-2.03 -0.27,-0.41 -0.68,-0.81 -1.22,-0.95 -0.41,-0.13 -0.95,-0.27 -1.36,-0.27l-1.62 0 -9.33 0 -2.84 13.39 -4.2 0 6.63 -31.52 12.31 0zm-1.62 14.61c1.62,0 2.98,-0.27 3.92,-0.67 0.95,-0.41 1.76,-0.95 2.3,-1.63 0.54,-0.67 0.95,-1.35 1.08,-2.03 0.14,-0.67 0.27,-1.35 0.27,-1.89 0,-0.95 -0.13,-1.76 -0.54,-2.44 -0.4,-0.67 -0.81,-1.08 -1.35,-1.49 -0.54,-0.4 -1.22,-0.54 -2.03,-0.67 -0.81,-0.14 -1.49,-0.14 -2.3,-0.14l-8.39 0 -2.3 10.96 9.34 0z"/>
    <path fill="black" d="M507.56 278.28l5.69 31.52 -4.33 0 -1.49 -9.47 -13.26 0 -5.55 9.47 -4.6 0 18.94 -31.52 4.6 0zm-0.54 18.54l-2.3 -14.75 -0.13 0 -8.39 14.75 10.82 0z"/>
    <path fill="black" d="M546.12 278.28c3.93,0 6.9,1.08 8.93,3.25 2.03,2.16 2.98,5.14 2.98,8.79 0,2.98 -0.41,5.68 -1.22,7.98 -0.81,2.3 -2.03,4.47 -3.52,6.09 -1.49,1.63 -3.38,2.98 -5.54,3.93 -2.17,0.94 -4.47,1.35 -7.17,1.35l-12.05 0 6.63 -31.52 10.96 0 0 0.13zm-5.54 28.01c2.3,0 4.19,-0.41 5.81,-1.36 1.63,-0.94 2.98,-2.03 4.2,-3.51 1.08,-1.49 1.89,-3.12 2.43,-5.01 0.54,-1.89 0.82,-3.79 0.82,-5.68 0,-1.09 -0.14,-2.3 -0.41,-3.38 -0.27,-1.09 -0.68,-2.04 -1.35,-2.85 -0.68,-0.81 -1.49,-1.48 -2.71,-2.03 -1.08,-0.54 -2.57,-0.81 -4.33,-0.81l-6.76 0 -5.15 24.36 7.45 0 0 0.27z"/>
    <polygon fill="black" points="587.79,278.28 587.12,281.8 569.67,281.8 567.5,291.81 583.87,291.81 583.2,295.33 566.82,295.33 564.52,306.15 582.25,306.15 581.44,309.67 559.52,309.67 566.15,278.15 587.79,278.15 "/>
    <polygon fill="black" points="625.95,278.28 625.14,281.8 608.63,281.8 606.6,291.81 621.08,291.81 620.27,295.33 605.79,295.33 602.81,309.8 598.62,309.8 605.25,278.28 "/>
    <path fill="black" d="M634.74 278.28l-6.63 31.52 -4.19 0 6.63 -31.52 4.19 0zm5.28 -7.98l-5.95 6.36 -3.11 0 4.05 -6.36 5.01 0z"/>
    <path fill="black" d="M657.47 284.5c-0.27,-0.81 -0.81,-1.48 -1.48,-2.03 -0.68,-0.54 -1.36,-0.81 -2.3,-1.08 -0.95,-0.27 -1.9,-0.27 -2.98,-0.27 -0.81,0 -1.63,0.14 -2.44,0.27 -0.81,0.14 -1.62,0.54 -2.3,0.95 -0.67,0.4 -1.35,0.95 -1.75,1.62 -0.41,0.68 -0.68,1.49 -0.68,2.44 0,0.81 0.13,1.35 0.4,2.03 0.27,0.54 0.68,0.94 1.09,1.35 0.4,0.41 0.94,0.68 1.62,0.95 0.68,0.27 1.35,0.54 2.03,0.67l4.19 1.09c0.95,0.27 1.9,0.54 2.84,0.94 0.95,0.41 1.76,0.95 2.44,1.49 0.68,0.54 1.22,1.49 1.76,2.44 0.41,0.94 0.68,2.16 0.68,3.52 0,1.62 -0.41,3.11 -1.09,4.19 -0.81,1.22 -1.75,2.16 -2.84,2.98 -1.22,0.81 -2.43,1.35 -3.92,1.75 -1.49,0.41 -2.84,0.54 -4.33,0.54 -1.89,0 -3.65,-0.26 -5.14,-0.67 -1.63,-0.41 -2.98,-1.08 -4.06,-1.9 -1.08,-0.81 -1.9,-2.02 -2.57,-3.38 -0.54,-1.35 -0.81,-3.11 -0.68,-5l4.2 0c0,1.35 0.13,2.57 0.54,3.51 0.4,0.95 0.94,1.76 1.76,2.3 0.81,0.55 1.62,0.95 2.7,1.22 1.08,0.27 2.17,0.41 3.52,0.41 0.95,0 1.89,-0.14 2.84,-0.41 0.95,-0.27 1.76,-0.54 2.57,-1.08 0.68,-0.54 1.35,-1.08 1.76,-1.89 0.41,-0.82 0.68,-1.63 0.68,-2.71 0,-0.81 -0.14,-1.49 -0.41,-2.03 -0.27,-0.54 -0.68,-1.08 -1.22,-1.49 -0.54,-0.4 -1.08,-0.67 -1.76,-0.95 -0.67,-0.27 -1.35,-0.54 -2.16,-0.67l-4.33 -1.09c-0.95,-0.26 -1.89,-0.67 -2.71,-1.08 -0.81,-0.4 -1.62,-0.94 -2.3,-1.62 -0.67,-0.68 -1.21,-1.35 -1.48,-2.3 -0.28,-0.95 -0.55,-1.9 -0.55,-3.11 0,-1.49 0.27,-2.84 0.95,-3.93 0.68,-1.08 1.49,-2.03 2.57,-2.84 1.08,-0.81 2.3,-1.35 3.66,-1.76 1.35,-0.4 2.7,-0.54 4.19,-0.54 1.62,0 2.98,0.14 4.46,0.54 1.36,0.41 2.57,0.95 3.66,1.76 1.08,0.81 1.89,1.9 2.43,3.11 0.54,1.22 0.81,2.85 0.81,4.61l-4.19 0c-0.27,-0.95 -0.41,-2.04 -0.68,-2.85z"/>
    <polygon fill="black" points="674.66,278.28 668.03,309.8 663.83,309.8 670.46,278.28 "/>
    <path fill="black" d="M699.42 307.5c-2.3,2.03 -5.42,2.98 -9.34,2.98 -4.33,0 -7.71,-1.22 -10.01,-3.65 -2.3,-2.44 -3.52,-5.82 -3.52,-10.15 0,-2.57 0.41,-5.01 1.22,-7.31 0.81,-2.3 1.89,-4.33 3.38,-6.08 1.49,-1.76 3.25,-3.12 5.41,-4.2 2.17,-1.08 4.6,-1.62 7.17,-1.62 1.76,0 3.25,0.27 4.74,0.67 1.49,0.41 2.71,1.09 3.79,2.03 1.08,0.95 1.89,2.03 2.57,3.39 0.67,1.35 0.94,2.97 0.94,4.73l-4.19 0c0,-2.43 -0.68,-4.33 -2.16,-5.55 -1.49,-1.21 -3.39,-1.89 -5.69,-1.89 -2.16,0 -4.06,0.41 -5.68,1.35 -1.62,0.95 -2.98,2.17 -4.06,3.66 -1.08,1.49 -1.89,3.11 -2.43,5 -0.55,1.9 -0.82,3.79 -0.82,5.69 0,1.48 0.14,2.97 0.55,4.19 0.4,1.22 0.94,2.3 1.75,3.25 0.82,0.94 1.76,1.62 2.84,2.03 1.22,0.54 2.58,0.81 4.06,0.81 2.57,0 4.74,-0.68 6.36,-2.03 1.63,-1.35 2.71,-3.25 3.39,-5.82l4.19 0c-0.54,3.79 -2.16,6.49 -4.46,8.52z"/>
    <path fill="black" d="M727.96 278.28l5.69 31.52 -4.33 0 -1.49 -9.47 -13.26 0 -5.55 9.47 -4.6 0 18.94 -31.52 4.6 0zm-0.67 18.54l-2.3 -14.75 -0.14 0 -8.39 14.75 10.83 0z"/>
   </g>
   <g>
    <path fill="none" d="M151.59 151.23c9.82,2.77 17.34,4.45 25.93,6.29 5.06,1.08 20.71,4.3 42.35,7.37 10.43,1.38 19.48,2.45 27.16,3.22 -3.38,-11.2 -5.07,-22.86 -5.07,-35.14 0,-15.49 2.92,-30.38 8.13,-44.03 -9.81,0.92 -20.4,1.99 -33.29,3.99 -16.26,2.45 -28.69,4.91 -35.75,6.44 -10.59,2.15 -19.18,3.99 -30.69,7.06 -13.5,3.68 -23.16,7.06 -29.46,9.36 -7.67,2.92 -13.96,5.52 -20.4,8.9 -0.92,0.46 -6.91,3.68 -13.96,8.75 -4.76,3.37 -7.06,5.52 -9.21,8.13 -2.3,2.76 -3.84,5.52 -4.76,7.52 0,0 0,0 0,0 0,0 -2.15,4.14 -2.3,8.74 -0.31,5.52 2.61,10.13 4.3,13.04 2.3,3.69 4.75,6.14 6.9,7.98 0.92,0.77 3.53,3.22 10.13,7.37 2.91,1.84 7.52,4.45 14.27,7.67 6.29,2.91 11.35,4.91 14.57,6.14 16.27,6.13 35.45,10.89 37.29,11.35 19.64,4.76 35.75,7.52 45.57,9.21 8.59,1.38 29.92,4.6 60.91,7.21 3.68,0.3 12.58,1.07 24.7,1.69 -14.42,-11.36 -26.39,-25.94 -34.52,-42.81 -96.35,-16.88 -134.56,-46.34 -134.56,-46.34 8.75,3.84 18.41,7.06 31.76,10.89z"/>
    <path fill="none" d="M481.63 168.11c9.66,-0.92 20.25,-1.99 33.14,-3.99 16.26,-2.45 28.69,-4.91 35.75,-6.44 10.59,-2.15 19.18,-3.99 30.68,-7.06 13.51,-3.68 23.17,-7.06 29.46,-9.36 7.67,-2.92 13.97,-5.52 20.41,-8.9 0.92,-0.46 6.91,-3.68 13.96,-8.75 4.76,-3.37 7.06,-5.52 9.21,-8.13 2.3,-2.76 3.83,-5.52 4.75,-7.52 0,0 0,0 0,0 0,0 2.15,-4.14 2.31,-8.74 0.3,-5.52 -2.61,-10.13 -4.3,-13.04 -2.3,-3.69 -4.76,-6.14 -6.9,-7.98 -0.92,-0.77 -3.53,-3.22 -10.13,-7.37 -2.92,-1.84 -7.52,-4.45 -14.27,-7.67 -6.29,-2.91 -11.35,-4.91 -14.58,-6.14 -16.26,-6.13 -35.44,-10.89 -37.28,-11.35 -19.64,-4.76 -35.75,-7.52 -45.57,-9.21 -8.59,-1.38 -29.92,-4.6 -60.91,-7.21 -5.22,-0.46 -20.72,-1.69 -40.97,-2.6 -0.31,0 -0.61,0 -0.92,0 17.64,10.27 32.53,24.7 43.11,42.19 102.96,16.88 143.46,48.02 143.46,48.02 -9.05,-4.14 -18.71,-7.36 -32.06,-11.2 -9.82,-2.76 -17.34,-4.45 -25.93,-6.29 -5.07,-1.07 -20.72,-4.29 -42.35,-7.36 -13.35,-1.84 -24.4,-2.92 -33.45,-3.68 5.37,13.8 8.44,28.84 8.44,44.49 0.15,12.28 -1.69,24.09 -5.06,35.29z"/>
    <g>
     <path fill="#A51E22" d="M358.73 1.64c-125.36,8.9 -200.54,31.14 -239.21,61.68 16.42,-6.45 21.48,-8.75 41.58,-14.12 10.59,-2.91 19.18,-4.91 24.71,-6.14 9.51,-2.15 16.87,-3.37 22.09,-4.45 3.99,-0.76 11.81,-2.14 21.94,-3.53 14.42,-2.14 25.32,-3.37 28.23,-3.68 12.59,-1.38 22.1,-2.15 28.54,-2.61 5.22,-0.46 10.13,-0.76 14.73,-1.07 18.41,-11.05 39.89,-17.34 62.76,-17.34 22.4,0 43.42,5.99 61.37,16.57 0.31,0 0.61,0 0.92,0 20.41,0.92 35.9,2.15 40.97,2.61 30.99,2.61 52.32,5.83 60.91,7.21 9.82,1.54 25.93,4.45 45.57,9.21 1.84,0.46 21.02,5.06 37.28,11.35 3.23,1.23 8.29,3.22 14.58,6.14 6.6,3.22 11.2,5.83 14.27,7.67 6.6,4.14 9.36,6.45 10.13,7.37 2.14,1.99 4.6,4.29 6.9,7.97 1.69,2.92 4.6,7.52 4.3,13.05 -0.16,4.6 -2.31,8.74 -2.31,8.74 0,0 0,0 0,0 -0.92,2 -2.45,4.6 -4.75,7.52 -2.15,2.61 -4.45,4.76 -9.21,8.13 -7.21,5.07 -13.04,8.29 -13.96,8.75 -6.45,3.37 -12.74,5.98 -20.41,8.9 -6.29,2.3 -15.95,5.67 -29.46,9.36 -11.5,3.07 -19.94,4.91 -30.68,7.05 -7.06,1.39 -19.64,3.99 -35.75,6.45 -12.89,1.84 -23.48,3.07 -33.14,3.99 -3.69,0.31 -7.22,0.61 -10.59,0.92 -17.34,1.53 -30.53,2.15 -39.13,2.45 -8.28,0.31 -49.71,1.08 -73.03,1.23 -21.02,0 -37.59,-0.46 -48.79,-0.92 -16.11,-0.61 -28.85,-0.92 -46.19,-2.3 -4.6,-0.31 -10.28,-0.77 -16.87,-1.38 -7.68,-0.77 -16.73,-1.69 -27.16,-3.22 -21.64,-2.92 -37.29,-6.29 -42.35,-7.37 -8.59,-1.84 -16.11,-3.37 -25.93,-6.29 -13.35,-3.83 -23.01,-7.06 -32.07,-11.2 0,0 38.21,29.46 134.56,46.34 29.31,5.06 63.99,9.05 104.65,10.74 38.51,1.53 75.64,0.92 110.62,-1.38 151.44,-9.98 261.91,-52.63 261.91,-96.36 0,-54.16 -167.55,-110.01 -372.53,-98.04z"/>
     <path fill="#A51E22" d="M511.7 92.01c21.63,2.91 37.28,6.29 42.35,7.36 8.59,1.84 16.11,3.38 25.93,6.29 13.34,3.84 23.01,7.06 32.06,11.2 0,0 -40.5,-31.14 -143.15,-47.71 3.68,6.13 6.91,12.58 9.51,19.33 8.9,0.61 19.95,1.69 33.3,3.53z"/>
     <path fill="#A51E22" d="M545.61 213.83c-9.52,2.15 -16.88,3.38 -22.1,4.45 -3.99,0.77 -11.81,2.15 -21.94,3.53 -14.42,2.15 -25.31,3.38 -28.23,3.68 -12.58,1.39 -22.09,2.15 -28.54,2.61 -1.38,0.16 -2.61,0.16 -3.83,0.31 -23.79,1.69 -41.43,2.15 -46.65,2.3 -9.05,0.16 -15.8,0.16 -23.01,0.16 -10.28,0 -47.72,-0.16 -66.28,-0.93 -5.99,-0.3 -11.36,-0.46 -16.42,-0.76 -12.12,-0.77 -21.02,-1.38 -24.7,-1.69 -31,-2.61 -52.33,-5.83 -60.92,-7.21 -9.82,-1.54 -25.93,-4.45 -45.57,-9.21 -1.84,-0.46 -21.02,-5.06 -37.28,-11.35 -3.22,-1.23 -8.29,-3.22 -14.58,-6.14 -6.6,-3.22 -11.2,-5.83 -14.27,-7.67 -6.59,-4.14 -9.36,-6.45 -10.12,-7.36 -2.15,-2 -4.61,-4.3 -6.91,-7.98 -1.69,-2.92 -4.6,-7.52 -4.29,-13.05 0.15,-4.6 2.3,-8.74 2.3,-8.74 0,0 0,0 0,0 0.92,-2 2.45,-4.6 4.75,-7.52 2.15,-2.61 4.45,-4.76 9.21,-8.13 7.21,-5.06 13.04,-8.29 13.96,-8.75 6.45,-3.37 12.74,-5.98 20.41,-8.9 6.29,-2.3 15.96,-5.67 29.46,-9.36 11.51,-3.07 19.94,-4.91 30.68,-7.05 7.06,-1.39 19.64,-3.99 35.75,-6.45 12.89,-1.99 23.48,-3.07 33.3,-3.99 3.83,-9.97 8.9,-19.33 15.19,-27.92 -152.97,9.66 -264.98,52.62 -264.98,96.66 0,53.86 167.7,109.71 372.54,97.74 125.35,-8.9 200.53,-31.15 239.2,-61.68 -16.42,6.44 -21.48,8.74 -41.58,14.11 -10.28,2.92 -18.88,4.91 -24.55,6.29z"/>
    </g>
    <g>
     <path fill="black" d="M358.88 197.11c-40.66,-1.69 -75.34,-5.68 -104.64,-10.74 8.13,16.72 19.94,31.3 34.52,42.81 4.91,0.3 10.43,0.61 16.42,0.76 18.56,0.77 56,0.77 66.28,0.93 7.21,0 13.96,0 23.01,-0.16 5.07,-0.15 22.87,-0.46 46.65,-2.3 11.35,-9.05 21.02,-20.1 28.54,-32.68 -35.29,2.3 -72.42,2.91 -110.78,1.38z"/>
     <path fill="black" d="M478.4 88.33c-2.6,-6.76 -5.83,-13.2 -9.51,-19.34 -10.58,-17.33 -25.47,-31.91 -43.11,-42.19 -18.11,-10.44 -38.97,-16.57 -61.38,-16.57 -23.01,0 -44.49,6.29 -62.75,17.34 -14.27,8.59 -26.54,19.79 -36.36,33.14 -6.14,8.59 -11.36,17.95 -15.19,27.92 -5.22,13.66 -8.14,28.54 -8.14,44.04 0,12.27 1.84,23.93 5.07,35.13 6.59,0.62 12.27,1.08 16.88,1.38 17.33,1.39 30.07,1.85 46.18,2.31 11.2,0.46 27.77,0.92 48.79,0.92 23.48,0 64.75,-0.77 73.03,-1.23 8.6,-0.46 21.64,-1.08 39.13,-2.46 3.53,-0.3 7.06,-0.61 10.59,-0.92 3.37,-11.2 5.21,-23.01 5.21,-35.13 0,-15.5 -3.07,-30.54 -8.44,-44.34z"/>
    </g>
    <g>
     <path fill="white" d="M278.79 143.1c0.76,1.69 1.84,3.07 3.22,3.99 1.38,1.07 3.07,1.69 5.06,2.15 2,0.46 3.99,0.61 6.29,0.61 1.54,0 3.22,-0.15 4.76,-0.61 1.53,-0.46 3.07,-1.08 4.3,-1.84 1.22,-0.77 2.3,-1.84 3.22,-3.07 0.76,-1.23 1.23,-2.76 1.23,-4.6 0,-1.69 -0.47,-3.23 -1.54,-4.3 -1.07,-1.08 -2.45,-2 -4.14,-2.92 -1.69,-0.76 -3.68,-1.53 -5.83,-2.14 -2.15,-0.62 -4.3,-1.23 -6.6,-1.85 -2.3,-0.61 -4.45,-1.53 -6.6,-2.45 -2.15,-0.92 -3.99,-2.15 -5.83,-3.68 -1.69,-1.54 -3.07,-3.23 -4.14,-5.37 -1.07,-2.15 -1.53,-4.76 -1.53,-7.83 0,-3.99 0.76,-7.36 2.45,-10.28 1.69,-2.76 3.84,-5.06 6.6,-6.9 2.61,-1.84 5.68,-3.07 9.05,-3.84 3.38,-0.77 6.75,-1.23 10.28,-1.23 3.68,0 7.21,0.46 10.43,1.23 3.23,0.77 6.14,2.15 8.6,3.99 2.45,1.84 4.45,4.3 5.83,7.21 1.38,2.92 2.15,6.45 2.15,10.59l-14.89 0c0,-2 -0.15,-3.68 -0.92,-5.06 -0.61,-1.38 -1.53,-2.46 -2.76,-3.38 -1.23,-0.92 -2.61,-1.53 -4.14,-1.84 -1.54,-0.31 -3.38,-0.61 -5.07,-0.61 -1.53,0 -2.91,0.15 -4.45,0.46 -1.53,0.3 -2.91,0.76 -3.99,1.53 -1.22,0.77 -2.14,1.69 -2.91,2.76 -0.77,1.08 -1.07,2.61 -1.07,4.14 0,1.69 0.61,3.23 1.99,4.3 1.38,1.23 2.92,2.15 4.76,2.92 1.84,0.76 3.68,1.38 5.67,1.84 2,0.46 3.53,0.76 4.76,1.07 2.76,0.77 5.37,1.53 7.67,2.61 2.3,0.92 4.3,2.3 6.14,3.83 1.69,1.54 3.07,3.38 3.99,5.68 0.92,2.15 1.38,4.91 1.38,8.13 0,4.3 -0.92,7.98 -2.61,10.9 -1.84,3.07 -3.99,5.52 -6.75,7.36 -2.76,1.84 -5.83,3.22 -9.36,3.99 -3.53,0.77 -6.9,1.23 -10.28,1.23 -9.97,0 -17.49,-1.99 -22.4,-6.14 -4.91,-4.14 -7.37,-10.43 -7.37,-19.33l14.89 0c-0.62,2.91 -0.31,5.06 0.46,6.75z"/>
     <path fill="white" d="M372.23 88.79c3.68,0 6.9,0.3 9.66,0.76 2.92,0.46 5.37,1.38 7.37,2.61 1.99,1.23 3.53,2.92 4.6,5.06 1.08,2.15 1.54,4.91 1.54,8.44 0,2 -0.31,3.99 -0.92,5.83 -0.62,1.85 -1.54,3.69 -2.61,5.07 -1.23,1.53 -2.61,2.76 -4.15,3.83 -1.68,1.08 -3.52,1.69 -5.67,1.84l0 0.16c3.37,0.92 5.98,2.76 7.82,5.37 1.84,2.61 2.76,5.68 2.76,9.2 0,3.84 -0.76,7.37 -2.3,10.28 -1.53,2.92 -3.53,5.37 -6.13,7.37 -2.61,1.99 -5.53,3.37 -8.75,4.45 -3.22,1.07 -6.75,1.53 -10.28,1.53l-38.05 0 14.88 -71.65 30.23 0 0 -0.15zm-7.67 59.53c3.68,0 6.59,-0.92 8.9,-2.92 2.3,-1.99 3.52,-4.75 3.52,-8.59 0,-1.84 -0.46,-3.38 -1.22,-4.45 -0.77,-1.07 -1.69,-1.84 -2.92,-2.45 -1.23,-0.62 -2.61,-0.93 -3.99,-1.08 -1.53,-0.15 -2.91,-0.15 -4.29,-0.15l-15.5 0 -4.14 19.64 19.64 0zm4.6 -30.54c2.92,0 5.37,-0.76 7.52,-2.3 2.15,-1.53 3.22,-3.99 3.22,-7.05 0,-2.77 -0.77,-4.76 -2.3,-5.84 -1.54,-1.07 -3.53,-1.53 -6.14,-1.53l-16.72 0 -3.53 16.72 17.95 0z"/>
     <polygon fill="white" points="465.67,88.79 462.75,101.98 427.62,101.98 424.09,118.55 454.77,118.55 452.17,130.83 421.63,130.83 415.34,160.44 399.69,160.44 414.73,88.79 "/>
    </g>
   </g>
  </g>
 </g>
</svg>
